<?xml version="1.0" encoding="utf-8"?>
<!-- Generator: Adobe Illustrator 25.0.0, SVG Export Plug-In . SVG Version: 6.00 Build 0)  -->
<svg version="1.1" id="Layer_1" xmlns="http://www.w3.org/2000/svg" xmlns:xlink="http://www.w3.org/1999/xlink" x="0px" y="0px"
	 viewBox="0 0 2438.4 808" style="enable-background:new 0 0 2438.4 808;" xml:space="preserve">
<style type="text/css">
	.st0{fill:#482C7C;}
	.st1{fill:#6D5696;}
	.st2{fill:#9180B0;}
</style>
<g>
	<path class="st0" d="M716.52,0v113.84h-461.2v0C255.31,50.97,306.28,0,369.15,0H716.52z"/>
	<path class="st1" d="M461.99,808V694.16H0.79v0C0.79,757.03,51.75,808,114.62,808H461.99z"/>
	<path class="st1" d="M0.79,138.83v113.84h461.2v0c0-62.87-50.97-113.84-113.84-113.84H0.79z"/>
	<path class="st0" d="M255.31,669.17V555.33h461.2v0c0,62.87-50.97,113.84-113.84,113.84H255.31z"/>
	<path class="st0" d="M255.31,277.67L255.31,277.67c0,62.87,50.97,113.84,113.84,113.84h347.37v0
		c0-62.87-50.97-113.84-113.84-113.84H255.31z"/>
	<path class="st1" d="M461.99,416.5L461.99,416.5c0,62.87-50.97,113.84-113.84,113.84H0.79v0c0-62.87,50.97-113.84,113.84-113.84
		H461.99z"/>
	<polygon class="st2" points="485.91,252.67 648.39,252.67 716.52,138.83 555.83,138.83 	"/>
	<polygon class="st2" points="0,277.67 162.47,277.67 230.6,391.5 69.92,391.5 	"/>
	<polygon class="st2" points="439.64,530.33 581.54,530.33 649.67,416.5 509.55,416.5 	"/>
	<polygon class="st2" points="231.39,555.33 230.6,669.17 162.76,555.33 	"/>
	<g>
		<path class="st0" d="M867.66,200c-25.5,0-45.12-5.58-58.88-16.75c-13.75-11.16-20.62-26.41-20.62-45.75h48
			c0.16,9.34,2.91,15.75,8.25,19.25c5.33,3.5,13.75,5.25,25.25,5.25c16.66,0,25-5.33,25-16c0-5-1.92-8.66-5.75-11
			c-3.84-2.33-11.25-4.41-22.25-6.25l-14-2.25c-41.17-6.66-61.75-25.83-61.75-57.5c0-16.83,6.29-30.21,18.88-40.12
			C822.36,18.96,840.41,14,863.91,14c23.66,0,42,4.96,55,14.88c13,9.92,20,24.54,21,43.88h-47c-0.34-7.16-2.75-12.41-7.25-15.75
			c-4.5-3.33-11.5-5-21-5c-15.17,0-22.75,4.92-22.75,14.75c0,5,1.91,8.75,5.75,11.25c3.83,2.5,10.58,4.59,20.25,6.25l14.75,2.5
			c22.16,3.67,38.29,9.88,48.38,18.62c10.08,8.75,15.12,21.04,15.12,36.88c0,18.84-6.92,33.17-20.75,43
			C911.57,195.09,892.32,200,867.66,200z"/>
		<path class="st0" d="M1049.65,200c-28,0-50.59-8.5-67.75-25.5c-17.17-16.66-25.75-39.16-25.75-67.5
			c0-28.16,8.58-50.75,25.75-67.75C999.23,22.42,1021.81,14,1049.65,14c27.83,0,50.41,8.42,67.75,25.25
			c17.16,17,25.75,39.59,25.75,67.75c0,28.34-8.59,50.84-25.75,67.5C1100.23,191.5,1077.65,200,1049.65,200z M1019.4,143.5
			c7.5,8.84,17.58,13.25,30.25,13.25c12.66,0,22.75-4.41,30.25-13.25c7.5-8.66,11.25-20.83,11.25-36.5
			c0-15.33-3.75-27.46-11.25-36.38c-7.5-8.91-17.59-13.38-30.25-13.38c-12.67,0-22.75,4.46-30.25,13.38
			c-7.5,8.92-11.25,21.04-11.25,36.38C1008.15,122.67,1011.9,134.84,1019.4,143.5z"/>
		<path class="st0" d="M1210.65,18v133.5h78.75V196h-128.75V18H1210.65z"/>
		<path class="st0" d="M1444.9,18v44.5h-90.5V86h82.5v41.5h-82.5v24h90.5V196h-140.5V18H1444.9z"/>
		<path class="st0" d="M1614.15,154.25l1,23.75c0.33,7.34,1.83,13.34,4.5,18h-51.5c-2-3.83-3.17-9.83-3.5-18l-0.75-20.25
			c-0.34-9-2.38-15.12-6.12-18.38s-9.79-4.88-18.12-4.88h-26V196h-50V18h87.5c22.66,0,39.41,4.92,50.25,14.75
			c10.66,10,16,22.67,16,38c0,9.17-2.38,17.42-7.12,24.75c-4.75,7.34-11.62,13-20.62,17c9,3.34,15.21,8.17,18.62,14.5
			C1611.69,133.34,1613.65,142.42,1614.15,154.25z M1513.65,57v41h30c14.83,0,22.25-6.83,22.25-20.5c0-13.66-7.42-20.5-22.25-20.5
			H1513.65z"/>
		<path class="st0" d="M1809.65,196h-53l-7.5-23.25h-69.75l-7.5,23.25h-51l63.25-178h60L1809.65,196z M1705.4,90.5l-13,41h43.25
			l-13.25-41c-4.67-14.33-7.5-23.75-8.5-28.25C1709.73,76.09,1706.9,85.5,1705.4,90.5z"/>
		<path class="st0" d="M867.66,500c-25.5,0-45.12-5.58-58.88-16.75c-13.75-11.16-20.62-26.41-20.62-45.75h48
			c0.16,9.34,2.91,15.75,8.25,19.25c5.33,3.5,13.75,5.25,25.25,5.25c16.66,0,25-5.33,25-16c0-5-1.92-8.66-5.75-11
			c-3.84-2.33-11.25-4.41-22.25-6.25l-14-2.25c-41.17-6.66-61.75-25.83-61.75-57.5c0-16.83,6.29-30.21,18.88-40.12
			c12.58-9.91,30.62-14.88,54.12-14.88c23.66,0,42,4.96,55,14.88c13,9.92,20,24.54,21,43.88h-47c-0.34-7.16-2.75-12.41-7.25-15.75
			c-4.5-3.33-11.5-5-21-5c-15.17,0-22.75,4.92-22.75,14.75c0,5,1.91,8.75,5.75,11.25c3.83,2.5,10.58,4.59,20.25,6.25l14.75,2.5
			c22.16,3.67,38.29,9.88,48.38,18.62c10.08,8.75,15.12,21.04,15.12,36.88c0,18.84-6.92,33.17-20.75,43
			C911.57,495.09,892.32,500,867.66,500z"/>
		<path class="st0" d="M1102.9,318v44.5h-90.5V386h82.5v41.5h-82.5v24h90.5V496H962.4V318H1102.9z"/>
		<path class="st0" d="M1272.15,454.25l1,23.75c0.33,7.34,1.83,13.34,4.5,18h-51.5c-2-3.83-3.17-9.83-3.5-18l-0.75-20.25
			c-0.34-9-2.38-15.12-6.12-18.38s-9.79-4.88-18.12-4.88h-26V496h-50V318h87.5c22.66,0,39.41,4.92,50.25,14.75
			c10.66,10,16,22.67,16,38c0,9.17-2.38,17.42-7.12,24.75c-4.75,7.34-11.62,13-20.62,17c9,3.34,15.21,8.17,18.62,14.5
			C1269.69,433.34,1271.65,442.42,1272.15,454.25z M1171.65,357v41h30c14.83,0,22.25-6.83,22.25-20.5c0-13.66-7.42-20.5-22.25-20.5
			H1171.65z"/>
		<path class="st0" d="M1387.15,383.75L1407.4,318h51.5l-60.75,178h-60l-63-178h53.5l20.5,65.75c6.5,20.67,12.91,43.5,19.25,68.5
			C1374.07,428.09,1380.32,405.25,1387.15,383.75z"/>
		<path class="st0" d="M1520.15,496h-50V318h50V496z"/>
		<path class="st0" d="M1628.9,500c-27.67,0-49.75-8.41-66.25-25.25c-16.67-16.66-25-39.25-25-67.75s8.16-51.16,24.5-68
			c16.16-16.66,38.41-25,66.75-25c22.83,0,42.33,6.17,58.5,18.5c15.83,12.5,25.41,29.75,28.75,51.75h-50.5
			c-2.34-8.83-6.75-15.62-13.25-20.38s-14.34-7.12-23.5-7.12c-12.84,0-22.59,4.34-29.25,13c-6.67,8.67-10,21.09-10,37.25
			c0,16.17,3.33,28.59,10,37.25c6.66,8.67,16.41,13,29.25,13c10,0,18.29-2.71,24.88-8.12c6.58-5.41,10.79-13.04,12.62-22.88h50
			c-2.84,23.34-12.17,41.42-28,54.25C1672.4,493.5,1652.56,500,1628.9,500z"/>
		<path class="st0" d="M1874.4,318v44.5h-90.5V386h82.5v41.5h-82.5v24h90.5V496h-140.5V318H1874.4z"/>
		<path class="st0" d="M895.16,683.75L915.41,618h51.5l-60.75,178h-60l-63-178h53.5l20.5,65.75c6.5,20.67,12.91,43.5,19.25,68.5
			C882.07,728.09,888.32,705.25,895.16,683.75z"/>
		<path class="st0" d="M1028.15,796h-50V618h50V796z"/>
		<path class="st0" d="M1203.65,754.25l1,23.75c0.33,7.34,1.83,13.34,4.5,18h-51.5c-2-3.83-3.17-9.83-3.5-18l-0.75-20.25
			c-0.34-9-2.38-15.12-6.12-18.38s-9.79-4.88-18.12-4.88h-26V796h-50V618h87.5c22.66,0,39.41,4.92,50.25,14.75
			c10.66,10,16,22.67,16,38c0,9.17-2.38,17.42-7.12,24.75c-4.75,7.34-11.62,13-20.62,17c9,3.34,15.21,8.17,18.62,14.5
			C1201.19,733.34,1203.15,742.42,1203.65,754.25z M1103.15,657v41h30c14.83,0,22.25-6.83,22.25-20.5c0-13.66-7.42-20.5-22.25-20.5
			H1103.15z"/>
		<path class="st0" d="M1215.4,618h155v44.5h-52.5V796h-50V662.5h-52.5V618z"/>
		<path class="st0" d="M1461.65,800c-23.67,0-42.84-6.25-57.5-18.75c-15-12.5-22.5-30.33-22.5-53.5V618h50v110.25
			c0,9.34,2.62,16.5,7.88,21.5s12.62,7.5,22.12,7.5s16.88-2.5,22.12-7.5s7.88-12.16,7.88-21.5V618h50v109.75
			c0,23.5-7.25,41.42-21.75,53.75C1505.23,793.84,1485.82,800,1461.65,800z"/>
		<path class="st0" d="M1729.15,796h-53l-7.5-23.25h-69.75l-7.5,23.25h-51l63.25-178h60L1729.15,796z M1624.9,690.5l-13,41h43.25
			l-13.25-41c-4.67-14.33-7.5-23.75-8.5-28.25C1629.23,676.09,1626.4,685.5,1624.9,690.5z"/>
		<path class="st0" d="M1789.15,618v133.5h78.75V796h-128.75V618H1789.15z"/>
		<path class="st0" d="M1932.9,796h-50V618h50V796z"/>
		<path class="st0" d="M2068.65,751.5h35.75V796h-152.75v-38.5l52.5-58.75c8-8.83,19.16-21.08,33.5-36.75
			c-30.67,0.34-47.92,0.5-51.75,0.5h-31.75V618h149v38l-52.75,59.25c-8,8.84-19.17,21.09-33.5,36.75
			C2047.56,751.67,2064.81,751.5,2068.65,751.5z"/>
		<path class="st0" d="M2263.65,618v44.5h-90.5V686h82.5v41.5h-82.5v24h90.5V796h-140.5V618H2263.65z"/>
		<path class="st0" d="M2432.9,754.25l1,23.75c0.33,7.34,1.83,13.34,4.5,18h-51.5c-2-3.83-3.17-9.83-3.5-18l-0.75-20.25
			c-0.34-9-2.38-15.12-6.12-18.38s-9.79-4.88-18.12-4.88h-26V796h-50V618h87.5c22.66,0,39.41,4.92,50.25,14.75
			c10.66,10,16,22.67,16,38c0,9.17-2.38,17.42-7.12,24.75c-4.75,7.34-11.62,13-20.62,17c9,3.34,15.21,8.17,18.62,14.5
			C2430.43,733.34,2432.4,742.42,2432.9,754.25z M2332.4,657v41h30c14.83,0,22.25-6.83,22.25-20.5c0-13.66-7.42-20.5-22.25-20.5
			H2332.4z"/>
	</g>
</g>
</svg>
